<!-- Source of every icon in this folder. The PNGs and app/favicon.ico are rendered from this file (Chromium screenshot at 512/192/180/32); edit here, re-render, never hand-edit the PNGs. -->
<svg xmlns="http://www.w3.org/2000/svg" viewBox="0 0 512 512" width="512" height="512">
  <defs>
    <linearGradient id="bg" x1="0" y1="0" x2="0" y2="1">
      <stop offset="0" stop-color="#137A72"/><stop offset="1" stop-color="#0A5652"/>
    </linearGradient>
    <radialGradient id="light" cx="0.5" cy="0.38" r="0.6">
      <stop offset="0" stop-color="#FFFFFF" stop-opacity="0.10"/><stop offset="1" stop-color="#FFFFFF" stop-opacity="0"/>
    </radialGradient>
    <filter id="soft" x="-20%" y="-20%" width="140%" height="140%"><feGaussianBlur stdDeviation="10"/></filter>
  </defs>
  <rect width="512" height="512" fill="url(#bg)"/>
  <rect width="512" height="512" fill="url(#light)"/>

  <!-- shadow, so the letter stands off the surface -->
  <polygon points="116,344 116,104 178,104 256,242 334,104 396,104 396,344 340,344 340,203 260.4,344 251.6,344 172,203 172,344" fill="#000" fill-opacity="0.30" transform="translate(0 10)" filter="url(#soft)"/>
  <!-- the M -->
  <polygon points="116,344 116,104 178,104 256,242 334,104 396,104 396,344 340,344 340,203 260.4,344 251.6,344 172,203 172,344" fill="#F6F1E7"/>

  <!-- its width, dimensioned -->
  <rect x="116" y="401" width="280" height="10" rx="5" fill="#F7B32B"/>
  <rect x="116" y="383" width="10" height="46" rx="5" fill="#F7B32B"/>
  <rect x="386" y="383" width="10" height="46" rx="5" fill="#F7B32B"/>
</svg>